<svg width="181" height="30" viewBox="0 0 181 30" fill="none" xmlns="http://www.w3.org/2000/svg">
<path d="M10.7793 11.0969L-0.00012207 19.3687L2.92415 23.1784L13.7035 14.9067C14.6956 14.1452 15.7002 14.4329 16.0846 14.5941C16.4691 14.7529 17.3843 15.2589 17.5455 16.499L19.3189 29.967L24.0811 29.3395L22.3077 15.8715C21.9679 13.2895 20.3284 11.154 17.9225 10.1569C17.0197 9.78238 16.0772 9.59884 15.1446 9.59884C13.5944 9.59884 12.069 10.1073 10.7793 11.0969ZM4.57604 3.75278L7.59702 7.48562C11.0273 4.71017 15.6877 4.03305 19.7579 5.71965C23.8305 7.40625 26.6457 11.1788 27.1095 15.5689L31.8865 15.0654C31.2392 8.92667 27.298 3.64365 21.5983 1.28241C19.5223 0.421749 17.3371 0.00257874 15.1644 0.00257874C11.3745 0.00257874 7.62928 1.28489 4.57852 3.75278" fill="url(#paint0_linear_14787_2211)"/>
<path d="M44.3328 23.3443C43.0232 23.3443 41.9369 23.1211 41.0712 22.6796C40.2056 22.2356 39.5607 21.6404 39.1391 20.8888C38.7174 20.1398 38.5066 19.3312 38.5066 18.4656C38.5066 17.409 38.7794 16.5062 39.3301 15.7571C39.8782 15.0081 40.6595 14.4326 41.6739 14.0308C42.6884 13.629 43.9012 13.4281 45.315 13.4281H49.4645C49.4645 12.498 49.3281 11.7291 49.0528 11.1165C48.7775 10.5039 48.3732 10.045 47.8325 9.73744C47.2943 9.43237 46.6122 9.27859 45.7887 9.27859C44.8388 9.27859 44.0253 9.50677 43.3506 9.95819C42.6735 10.4121 42.2518 11.0818 42.0832 11.9697H38.9158C39.0423 10.8511 39.4268 9.89618 40.0717 9.10249C40.7165 8.31128 41.545 7.69864 42.5594 7.26459C43.5739 6.83302 44.6503 6.61476 45.7912 6.61476C47.2893 6.61476 48.5468 6.88015 49.5613 7.40597C50.5757 7.93427 51.3397 8.67836 51.858 9.63823C52.3764 10.6006 52.6344 11.744 52.6344 13.0759V22.9574H49.8788L49.6258 20.2663C49.3926 20.6879 49.1198 21.0897 48.8023 21.4692C48.4848 21.8487 48.1103 22.1786 47.6787 22.4514C47.2471 22.7267 46.7486 22.9425 46.1905 23.1013C45.63 23.26 45.0124 23.3394 44.3378 23.3394M44.933 20.7797C45.6077 20.7797 46.2203 20.6433 46.7709 20.368C47.3191 20.0951 47.7903 19.7206 48.1797 19.2444C48.5691 18.7682 48.8668 18.23 49.0677 17.6297C49.2686 17.027 49.3802 16.4094 49.4001 15.777V15.6827H45.63C44.7222 15.6827 43.9881 15.7943 43.4275 16.0151C42.867 16.2358 42.4627 16.5384 42.2072 16.9179C41.9542 17.2974 41.8277 17.7414 41.8277 18.2473C41.8277 18.7533 41.9492 19.2246 42.1923 19.5941C42.4354 19.9637 42.7876 20.2539 43.2539 20.4647C43.7177 20.6755 44.2782 20.7822 44.933 20.7822" fill="#1c3a2a"/>
<path d="M63.7784 23.3444C62.258 23.3444 60.9161 22.9798 59.7554 22.2506C58.5946 21.5214 57.6918 20.5293 57.0469 19.2742C56.402 18.0192 56.082 16.5881 56.082 14.9833C56.082 13.3786 56.4045 11.9226 57.0469 10.675C57.6918 9.42994 58.5995 8.44278 59.7702 7.71358C60.9409 6.98437 62.2877 6.61977 63.8082 6.61977C65.0533 6.61977 66.152 6.8678 67.102 7.36385C68.052 7.85991 68.7911 8.56183 69.3194 9.46962V0.158605H72.4867V22.9649H69.6691L69.3194 20.4945C69.0019 20.9807 68.5902 21.4395 68.0842 21.8711C67.5782 22.3051 66.9656 22.6573 66.2463 22.9327C65.527 23.208 64.7036 23.3444 63.7759 23.3444M64.2868 20.5888C65.279 20.5888 66.1545 20.3556 66.916 19.8918C67.6774 19.428 68.2628 18.7732 68.6745 17.9274C69.0863 17.0841 69.2921 16.1019 69.2921 14.9808C69.2921 13.8597 69.0863 12.885 68.6745 12.0516C68.2628 11.2182 67.6774 10.5634 66.916 10.0872C66.157 9.611 65.279 9.37538 64.2868 9.37538C63.2947 9.37538 62.4812 9.61348 61.7223 10.0872C60.9608 10.5634 60.3705 11.2157 59.9488 12.0516C59.5272 12.885 59.3164 13.8622 59.3164 14.9808C59.3164 16.0994 59.5272 17.0816 59.9488 17.9274C60.3705 18.7732 60.9633 19.428 61.7223 19.8918C62.4812 20.3556 63.3369 20.5888 64.2868 20.5888Z" fill="#1c3a2a"/>
<path d="M82.1176 23.3443C80.808 23.3443 79.7216 23.1211 78.8559 22.6796C77.9903 22.2356 77.3455 21.6404 76.9238 20.8888C76.4997 20.1398 76.2913 19.3312 76.2913 18.4656C76.2913 17.409 76.5642 16.5062 77.1148 15.7571C77.663 15.0081 78.4442 14.4326 79.4587 14.0308C80.4731 13.629 81.686 13.4281 83.0997 13.4281H87.2493C87.2493 12.498 87.1129 11.7291 86.8376 11.1165C86.5623 10.5039 86.1579 10.045 85.6172 9.73744C85.079 9.43237 84.3969 9.27859 83.5735 9.27859C82.6235 9.27859 81.81 9.50677 81.1354 9.95819C80.4582 10.4121 80.0366 11.0818 79.8679 11.9697H76.7006C76.8271 10.8511 77.2116 9.89618 77.8564 9.10249C78.5013 8.31128 79.3297 7.69864 80.3441 7.26459C81.3586 6.83302 82.435 6.61476 83.5759 6.61476C85.074 6.61476 86.3316 6.88015 87.346 7.40597C88.3605 7.93427 89.1243 8.67836 89.6427 9.63823C90.1611 10.6006 90.4191 11.744 90.4191 13.0759V22.9574H87.6635L87.4105 20.2663C87.1773 20.6879 86.9045 21.0897 86.5871 21.4692C86.2696 21.8487 85.895 22.1786 85.4635 22.4514C85.0294 22.7267 84.5334 22.9425 83.9753 23.1013C83.4147 23.26 82.7972 23.3394 82.1225 23.3394M82.7203 20.7797C83.3949 20.7797 84.0075 20.6433 84.5581 20.368C85.1063 20.0951 85.5776 19.7206 85.967 19.2444C86.3564 18.7682 86.654 18.23 86.8549 17.6297C87.0558 17.027 87.1674 16.4094 87.1873 15.777V15.6827H83.4172C82.5094 15.6827 81.7752 15.7943 81.2147 16.0151C80.6541 16.2358 80.2474 16.5384 79.9944 16.9179C79.7414 17.2974 79.6149 17.7414 79.6149 18.2473C79.6149 18.7533 79.7364 19.2246 79.9795 19.5941C80.2226 19.9637 80.5773 20.2539 81.0411 20.4647C81.5049 20.6755 82.0655 20.7822 82.7203 20.7822" fill="#1c3a2a"/>
<path d="M97.6393 0.158605H94.472V22.9649H97.6393V0.158605Z" fill="#1c3a2a"/>
<path d="M103.8 29.9643L107.712 21.1915H106.792L100.489 7.0017H103.91L108.915 18.5946L113.95 7.0017H117.276L107.126 29.9643H103.8Z" fill="#1c3a2a"/>
<path d="M126.619 22.9648C125.627 22.9648 124.761 22.8061 124.022 22.4911C123.283 22.1736 122.713 21.6478 122.311 20.9062C121.909 20.1671 121.708 19.165 121.708 17.8976V9.69279H118.952V6.99919H121.708L122.087 3.0084H124.875V6.99919H129.404V9.69279H124.875V17.9274C124.875 18.8352 125.066 19.4527 125.446 19.7801C125.825 20.1075 126.48 20.2712 127.41 20.2712H129.248V22.9624H126.619V22.9648Z" fill="#1c3a2a"/>
<path d="M134.73 3.99311C134.117 3.99311 133.616 3.80213 133.224 3.42264C132.832 3.04316 132.639 2.55702 132.639 1.96423C132.639 1.37144 132.835 0.924979 133.224 0.555416C133.613 0.185852 134.117 -0.000167847 134.73 -0.000167847C135.342 -0.000167847 135.816 0.185852 136.218 0.555416C136.617 0.924979 136.821 1.39376 136.821 1.96423C136.821 2.5347 136.62 3.04068 136.218 3.42264C135.816 3.80213 135.32 3.99311 134.73 3.99311ZM133.112 7.0017H136.28V22.9649H133.112V7.0017Z" fill="#1c3a2a"/>
<path d="M148.19 23.3443C146.647 23.3443 145.276 22.9897 144.073 22.2828C142.87 21.5759 141.925 20.5987 141.238 19.3535C140.551 18.1084 140.209 16.66 140.209 15.0155C140.209 13.3711 140.551 11.8854 141.238 10.6279C141.925 9.37285 142.87 8.39065 144.073 7.68129C145.276 6.9744 146.65 6.61972 148.19 6.61972C150.132 6.61972 151.759 7.1257 153.069 8.14014C154.379 9.15458 155.212 10.5262 155.571 12.2574H152.278C152.067 11.3273 151.586 10.6105 150.837 10.1045C150.088 9.59855 149.195 9.34309 148.16 9.34309C147.315 9.34309 146.533 9.55887 145.817 9.99292C145.097 10.4245 144.522 11.0594 144.09 11.8928C143.656 12.7262 143.44 13.7555 143.44 14.9808C143.44 15.8886 143.567 16.6972 143.82 17.404C144.073 18.1109 144.418 18.7087 144.849 19.1923C145.281 19.6785 145.784 20.0431 146.355 20.2861C146.925 20.5292 147.528 20.6507 148.16 20.6507C148.857 20.6507 149.485 20.5391 150.045 20.3184C150.603 20.0976 151.08 19.7628 151.472 19.3213C151.861 18.8773 152.131 18.3515 152.28 17.7389H155.574C155.214 19.428 154.381 20.7847 153.071 21.809C151.762 22.8334 150.135 23.3443 148.193 23.3443" fill="#1c3a2a"/>
<path d="M164.565 23.3443C163.255 23.3443 162.169 23.1211 161.303 22.6796C160.438 22.2356 159.793 21.6404 159.371 20.8888C158.947 20.1398 158.739 19.3312 158.739 18.4656C158.739 17.409 159.012 16.5062 159.562 15.7571C160.11 15.0081 160.892 14.4326 161.906 14.0308C162.921 13.629 164.133 13.4281 165.547 13.4281H169.697C169.697 12.498 169.56 11.7291 169.285 11.1165C169.01 10.5039 168.605 10.045 168.065 9.73744C167.527 9.43237 166.844 9.27859 166.021 9.27859C165.071 9.27859 164.257 9.50677 163.583 9.95819C162.906 10.4121 162.484 11.0818 162.315 11.9697H159.148C159.275 10.8511 159.659 9.89618 160.304 9.10249C160.949 8.31128 161.777 7.69864 162.792 7.26459C163.806 6.83302 164.883 6.61476 166.023 6.61476C167.522 6.61476 168.779 6.88015 169.794 7.40597C170.808 7.93427 171.572 8.67836 172.09 9.63823C172.609 10.6006 172.867 11.744 172.867 13.0759V22.9574H170.111L169.858 20.2663C169.625 20.6879 169.352 21.0897 169.035 21.4692C168.717 21.8487 168.343 22.1786 167.911 22.4514C167.477 22.7267 166.981 22.9425 166.423 23.1013C165.862 23.26 165.245 23.3394 164.57 23.3394M165.168 20.7797C165.842 20.7797 166.455 20.6433 167.006 20.368C167.554 20.0951 168.025 19.7206 168.414 19.2444C168.804 18.7682 169.102 18.23 169.302 17.6297C169.503 17.027 169.615 16.4094 169.635 15.777V15.6827H165.865C164.957 15.6827 164.223 15.7943 163.662 16.0151C163.102 16.2358 162.695 16.5384 162.442 16.9179C162.189 17.2974 162.062 17.7414 162.062 18.2473C162.062 18.7533 162.184 19.2246 162.427 19.5941C162.67 19.9637 163.025 20.2539 163.489 20.4647C163.952 20.6755 164.513 20.7822 165.168 20.7822" fill="#1c3a2a"/>
<path d="M180.084 0.158605H176.917V22.9649H180.084V0.158605Z" fill="#1c3a2a"/>
<defs>
<linearGradient id="paint0_linear_14787_2211" x1="8.01135" y1="14.5132" x2="28.1194" y2="14.5132" gradientUnits="userSpaceOnUse">
<stop stop-color="#48A031"/>
<stop offset="1" stop-color="#23501B"/>
</linearGradient>
</defs>
</svg>
